<?xml version="1.0" encoding="UTF-8"?>
<!DOCTYPE svg PUBLIC "-//W3C//DTD SVG 1.1//EN" "http://www.w3.org/Graphics/SVG/1.1/DTD/svg11.dtd">
<!-- Creator: CorelDRAW 2020 (64-Bit Evaluation Version) -->
<svg xmlns="http://www.w3.org/2000/svg" xml:space="preserve" width="1.16614in" height="0.989591in" version="1.1" style="shape-rendering:geometricPrecision; text-rendering:geometricPrecision; image-rendering:optimizeQuality; fill-rule:evenodd; clip-rule:evenodd"
viewBox="0 0 394.26 334.57"
 xmlns:xlink="http://www.w3.org/1999/xlink"
 xmlns:xodm="http://www.corel.com/coreldraw/odm/2003">
 <defs>
  <style type="text/css">
   <![CDATA[
    .fil0 {fill:#F6B430}
   ]]>
  </style>
 </defs>
 <g id="Layer_x0020_1">
  <metadata id="CorelCorpID_0Corel-Layer"/>
  <path class="fil0" d="M183.67 313.22c9.56,30.21 51.57,26.6 56.76,0.22 4.82,-8.87 1.78,-41.32 2.22,-53.85 4.93,-0.97 23.18,-1.63 27.62,-0.23 4.83,1.52 59.57,49 64.83,50.81 9.71,3.35 17.37,-1.79 19.69,-8.29 3.16,-8.9 0.35,-45.62 1.46,-58.77 14.68,-4.96 22.41,-9.12 29.58,-19.55 5.66,-8.23 13.35,-30.9 4.22,-40.13 -0.78,-17.2 -21,-25.52 -34.01,-30.45 -0.14,-13.8 -0.28,-27.71 -0.11,-41.5 0.72,-55.72 -40.76,-9.1 -65.94,10.13 -4.38,3.35 -6.74,5.22 -10.98,8.74 -4.68,3.9 -6.09,6.74 -14.19,7.18 -36.95,2.04 -101.14,-9.02 -111.98,15.69 -7.53,5.18 -5.7,14.61 -9.69,21.91 -20.63,1.47 -28.8,-0.33 -29.07,22.93 -0.3,25.9 8.96,20.93 30.25,23.12l2.93 13.51c4.56,15.47 17.06,21.14 34.78,24.74 0.47,12.47 -1.37,44.37 1.63,53.79zm-183.1 -80.35l0.53 1.35c5.81,24.24 20.66,32.11 47.85,32.24 23.75,0.12 57.5,1.79 80.15,-0.37l-0.13 -14.26c-19.21,-2.08 -46.4,-0.4 -66.35,-0.4 -24.09,-0 -41.62,3.59 -46.74,-20.37l-0.16 -101.35 0.02 -93.2c4.79,-27.62 33.03,-20.52 69.67,-20.58l185.34 -0c45.59,-0.04 38.93,11.46 40.15,52.53l14.56 0.65c0.53,-14.53 1.87,-34.93 -3.62,-46.73 -13.52,-29.05 -50.3,-21.44 -81.48,-21.44l-154.96 -0.16c-31.74,0.08 -76.29,-8.81 -84.29,31.68 -0.32,1.74 -0.36,3.67 -0.43,5.47 -0.42,10.71 -0.17,33.38 0.42,54.9l-0.01 100.27c-0.31,3.96 -0.56,7.97 -0.72,11.99 -0.58,8.27 -0.48,16.64 0.19,27.79zm45.56 -80.46l60.26 0.03 0.03 -14.73 -60.05 -0.09 -0.24 14.79zm-0.17 -30.44l75.46 0.26 0 -14.83 -75.17 -0.3 -0.29 14.88zm0.16 -30.3l105.52 0.12 0.01 -14.65 -105.26 -0.32 -0.28 14.85zm-0.18 -30.43l105.91 0.3 0 -14.7 -105.58 -0.49 -0.34 14.89zm143.76 16.53c-0.35,18.26 2.8,14.13 52.18,14.12 32.89,-0.01 38.43,2.71 38.22,-14.21l0.21 -13.94c-0.9,-19.37 6.65,-17.76 -42.99,-17.59 -41.52,0.14 -46.96,-4.12 -47.57,13.61l-0.05 18.01zm151.56 163.72l-0.02 0.73c0.3,-28.79 0.41,-64.1 0.26,-92.26 -0.45,-11.3 -0.17,-23.14 -0.4,-34.7 -0.04,-1.55 -0.07,-2.99 -0.11,-4.32 -0.1,-3.11 -0.25,-6.19 -0.48,-9.23 -3.27,0.67 -13.66,8.18 -14.6,13l-0.37 83.25 -0.08 -0 0.01 0.1 -12.31 -0.16c-2.96,-2.86 -1.19,0.18 -2.26,-4.49l-0.64 -67.76c-3.73,1.33 -11.41,7.95 -15.45,11.4 -4.86,4.15 -11.81,7.31 -14.39,13.66l0.04 96.86c10.06,8.24 19.22,15.65 29.44,23.78 10.52,8.37 18.81,15.96 29.89,23.98l1.47 -53.82zm14.69 -70.89c7,-3.62 19.85,10.71 21.6,20.03 4.68,18.03 -7.43,33.78 -21.5,36.29l-0.1 -56.33zm21.74 17.93c-0.08,-0.15 -0.13,-0.27 -0.1,-0.37 0.03,0.13 0.07,0.25 0.1,0.37zm-150.76 122.21c-4.42,4.15 -7.29,9.76 -16.65,8.62 -6.5,-0.79 -11.37,-5.7 -12.57,-11.99 -1.04,-5.43 -1.03,-23.4 -0.71,-36.27l0.45 -11.59 30.07 -0.59 -0.58 51.83zm37.75 -157.52l0.33 -0.38c-16.64,-1.26 -37.89,-0.36 -55.02,-0.35 -8.76,0 -18.78,-0.29 -27.42,0.16 -9.64,0.5 -12.5,3.97 -18.23,7.46 -5.37,13.25 -4.75,14.75 -4.88,31.87 -0.09,12.03 -1.14,24.56 0.81,36.45 11.77,18.88 17.07,15.44 43.64,15.28 20.4,-0.12 40.72,0.39 61.12,-0.09l-0.01 -78.14 -0.33 -12.25zm-90 34.21l0.1 10.65 14.69 -0.38 0.22 -14.76 15.09 -0.25 0.02 -14.15c-14.14,-1.04 -30.21,-4.15 -30.12,18.89zm-45.45 18.25l15.14 0.06 -0.12 -14.77 -14.91 -0.58 -0.1 15.29z"/>
 </g>
</svg>
