<?xml version="1.0" encoding="UTF-8"?>
<!DOCTYPE svg PUBLIC "-//W3C//DTD SVG 1.1//EN" "http://www.w3.org/Graphics/SVG/1.1/DTD/svg11.dtd">
<!-- Creator: CorelDRAW 2020 (64-Bit Evaluation Version) -->
<svg xmlns="http://www.w3.org/2000/svg" xml:space="preserve" width="0.692803in" height="0.884992in" version="1.1" style="shape-rendering:geometricPrecision; text-rendering:geometricPrecision; image-rendering:optimizeQuality; fill-rule:evenodd; clip-rule:evenodd"
viewBox="0 0 31.41 40.13"
 xmlns:xlink="http://www.w3.org/1999/xlink"
 xmlns:xodm="http://www.corel.com/coreldraw/odm/2003">
 <defs>
  <style type="text/css">
   <![CDATA[
    .fil0 {fill:#F6B430}
   ]]>
  </style>
 </defs>
 <g id="Layer_x0020_1">
  <metadata id="CorelCorpID_0Corel-Layer"/>
  <path class="fil0" d="M21.7 7.5c2.66,0 4.97,1.52 6.11,3.74l-1.68 0.77c-0.84,-1.59 -2.51,-2.67 -4.43,-2.67 -0.67,0 -1.31,0.13 -1.9,0.37l-0.79 -1.67c0.83,-0.35 1.73,-0.55 2.69,-0.55zm-21.21 -7.5l30.43 0c0.27,0 0.49,0.22 0.49,0.49l0 39.15c0,0.27 -0.22,0.49 -0.49,0.49l-30.43 0c-0.27,0 -0.49,-0.22 -0.49,-0.49l0 -39.15c0,-0.27 0.22,-0.49 0.49,-0.49zm0.71 1.3l29.01 0c0.1,0 0.18,0.08 0.18,0.18l0 37.16c0,0.1 -0.08,0.18 -0.18,0.18l-29.01 0c-0.1,0 -0.18,-0.08 -0.18,-0.18l0 -37.16c0,-0.1 0.08,-0.18 0.18,-0.18zm3.84 24.98l0 9.73 9.67 0 0 -0.7 2.09 1.05 -2.09 1.05 0 -0.7 -9.67 0 -0.7 0 0 -0.7 0 -9.73 -0.7 0 1.05 -2.09 1.05 2.09 -0.7 0zm6.03 3.69l2.15 0 0 5.21 -2.15 0 0 -5.21zm-2.62 2.34l2.15 0 0 2.87 -2.15 0 0 -2.87zm-2.62 1.49l2.15 0 0 1.38 -2.15 0 0 -1.38zm12.63 2.09l9.96 0 0 0.95 -9.96 0 0 -0.95zm0 -3.39l9.96 0 0 0.95 -9.96 0 0 -0.95zm0 -3.39l9.96 0 0 0.95 -9.96 0 0 -0.95zm0 -3.39l9.96 0 0 0.95 -9.96 0 0 -0.95zm-14.9 -6.78l9.96 0 0 0.95 -9.96 0 0 -0.95zm0 -3.39l9.96 0 0 0.95 -9.96 0 0 -0.95zm0 -3.39l9.96 0 0 0.95 -9.96 0 0 -0.95zm0 -3.39l9.96 0 0 0.95 -9.96 0 0 -0.95zm15.73 1.2c-1.55,0.85 -2.6,2.5 -2.6,4.39 0,0.65 0.12,1.26 0.34,1.83l-1.68 0.77c-0.33,-0.8 -0.51,-1.68 -0.51,-2.6 0,-2.63 1.48,-4.91 3.66,-6.06l0.79 1.67zm8.74 1.79c0.33,0.8 0.51,1.68 0.51,2.6 0,2.63 -1.48,4.91 -3.66,6.06l-0.79 -1.67c1.55,-0.85 2.6,-2.5 2.6,-4.39 0,-0.65 -0.12,-1.26 -0.34,-1.83l1.68 -0.77zm-3.65 8.9c-0.83,0.35 -1.73,0.55 -2.69,0.55 -2.66,0 -4.97,-1.52 -6.11,-3.74l1.68 -0.77c0.84,1.59 2.51,2.67 4.43,2.67 0.67,0 1.31,-0.13 1.9,-0.37l0.79 1.67z"/>
 </g>
</svg>
