<?xml version="1.0" encoding="UTF-8"?>
<!DOCTYPE svg PUBLIC "-//W3C//DTD SVG 1.1//EN" "http://www.w3.org/Graphics/SVG/1.1/DTD/svg11.dtd">
<!-- Creator: CorelDRAW 2020 (64-Bit Evaluation Version) -->
<svg xmlns="http://www.w3.org/2000/svg" xml:space="preserve" width="0.867524in" height="0.882173in" version="1.1" style="shape-rendering:geometricPrecision; text-rendering:geometricPrecision; image-rendering:optimizeQuality; fill-rule:evenodd; clip-rule:evenodd"
viewBox="0 0 48.7 49.52"
 xmlns:xlink="http://www.w3.org/1999/xlink"
 xmlns:xodm="http://www.corel.com/coreldraw/odm/2003">
 <defs>
  <style type="text/css">
   <![CDATA[
    .fil0 {fill:#F6B430}
   ]]>
  </style>
 </defs>
 <g id="Layer_x0020_1">
  <metadata id="CorelCorpID_0Corel-Layer"/>
  <path class="fil0" d="M30.11 5.44l17.02 4.98 1.57 -5.53 -16.96 -4.89 -1.63 5.44zm-8.65 2.66c1.61,0.47 2.54,2.15 2.08,3.76 -0.47,1.61 -2.15,2.54 -3.76,2.08 -0.58,-0.17 -1.07,-0.49 -1.44,-0.91 -0.83,0.06 -2.46,1.11 -3.04,1.43 -2.54,1.41 -3.72,2.06 -4.34,2.68l-2.18 7.54 -1.99 -0.57 -1.55 -0.39c-1.19,8.1 5,17.29 12.75,20.82 3.43,1.57 3.28,0.54 2.99,2.14 -0.64,0.34 0.19,0.35 -1.12,0.09l-3.32 -1.41c-3.47,-1.78 -6.73,-4.65 -8.74,-7.7 -2.39,-3.61 -4.55,-8.37 -4.06,-14.45l-3.73 -1.08 2.47 -8.55 5.72 1.65 1.5 0.43c0.39,0.05 0.74,-0.04 1.37,-0.4l6.46 -3.52c0.03,-0.11 0.06,-0.22 0.09,-0.33 -0.06,-0.41 -0.03,-0.84 0.09,-1.26 0.26,-0.91 0.91,-1.6 1.71,-1.95 0.13,-0.06 0.27,-0.11 0.42,-0.16 0.09,-0.02 0.16,-0.04 0.21,-0.04 0.46,-0.09 0.94,-0.07 1.41,0.07zm-17.43 8.24l4.44 1.28 -1.25 4.32 -4.44 -1.28 1.25 -4.32zm17.07 -6.99c0.92,0.27 1.46,1.23 1.19,2.15 -0.27,0.92 -1.23,1.46 -2.15,1.19 -0.92,-0.27 -1.46,-1.23 -1.19,-2.15 0.27,-0.92 1.23,-1.46 2.15,-1.19zm-3.45 17.93c2.23,3.61 3.66,5.24 4.96,10.04 0.49,1.8 0.94,3.82 1.17,5.84 0.11,1.02 0.21,1.96 0.25,3 0.07,1.83 -0.33,1.87 1.38,2.08 0.49,-1.71 5.37,-17.78 5.25,-18.74 -0.14,-1.13 -1.84,-2.31 -1.66,-4.46 0.32,-3.82 5.59,-5.46 8.06,-2.4 2.61,3.24 0.64,6.83 -3.16,7.65l-5.43 18.83c1.82,0.9 0.78,0.57 4.35,-3.77 2.4,-2.91 5.31,-5.59 8.43,-7.4 0.91,-0.52 1.51,-0.84 2.42,-1.31 0.98,-0.5 1.61,-0.61 2.5,-1.15 -0.12,-2.3 -1.25,-4.39 -1.27,-10.05 -0.01,-3.96 0.64,-7.68 1.34,-11.69l-17.15 -4.94c-1.75,5.06 -4.72,10.75 -8.07,14.78 -1.18,1.41 -2.39,2.43 -3.36,3.68z"/>
 </g>
</svg>
