<?xml version="1.0" encoding="UTF-8"?>
<!DOCTYPE svg PUBLIC "-//W3C//DTD SVG 1.1//EN" "http://www.w3.org/Graphics/SVG/1.1/DTD/svg11.dtd">
<!-- Creator: CorelDRAW 2020 (64-Bit Evaluation Version) -->
<svg xmlns="http://www.w3.org/2000/svg" xml:space="preserve" width="0.986094in" height="0.986094in" version="1.1" style="shape-rendering:geometricPrecision; text-rendering:geometricPrecision; image-rendering:optimizeQuality; fill-rule:evenodd; clip-rule:evenodd"
viewBox="0 0 84.93 84.93"
 xmlns:xlink="http://www.w3.org/1999/xlink"
 xmlns:xodm="http://www.corel.com/coreldraw/odm/2003">
 <defs>
  <style type="text/css">
   <![CDATA[
    .fil0 {fill:#F6B430}
   ]]>
  </style>
 </defs>
 <g id="Layer_x0020_1">
  <metadata id="CorelCorpID_0Corel-Layer"/>
  <path class="fil0" d="M-0 16.93l0 1.01c0.86,0.83 1.53,1.74 2.33,2.61 0.87,0.95 1.49,1.81 2.32,2.65 1.05,1.08 3.73,4.5 4.66,5.27 -0.13,0.56 -8.68,13.05 -9.31,13.59l0 0.98c0.39,0.13 9.05,4.54 9.73,5.07l-0 19.39c0.1,0.46 1.42,1.01 1.82,1.22 3.82,2.06 29.95,15.57 30.69,16.2l0.45 0c0.58,-0.5 22.41,-11.82 24.38,-12.88l6.2 -3.26c0.41,-0.22 1.82,-0.81 1.93,-1.28l-0 -19.39c0.64,-0.5 1.57,-0.85 2.35,-1.26 1.74,-0.93 6.02,-3.29 7.38,-3.81l0 -0.98c-0.31,-0.27 -9.15,-12.92 -9.31,-13.59 0.83,-0.69 2.55,-2.93 3.51,-3.93 1.48,-1.53 4.35,-5.22 5.8,-6.61l0 -1.01 -32.49 -16.93 -0.86 0 -2.19 2.61c-0.55,0.69 -1.94,2 -2.19,2.76l1.38 0.97 3.65 -4.32 30.34 15.73 -6.18 7.21c-0.64,0.72 -1.34,1.73 -2.08,2.39 -1.13,-0.11 -5.77,-3.04 -7.32,-3.62l-0.84 1.59 6.27 3.25 -15.78 8.24 -0.04 -4.02 7.09 -0.07c-0,-2.3 -0.37,-5.09 0.4,-7.11 2.8,-7.27 2.77,-4.91 0.47,-11.24 -0.53,-1.45 -1.41,-4.35 -2.07,-5.54l-6.45 0.01c-0.6,0.96 -1.64,4.3 -2.11,5.62 -0.42,1.2 -1.97,4.52 -1.63,5.51 0.62,1.82 1.41,3.74 2.09,5.55 0.79,2.1 0.37,4.89 0.46,7.31l-0.03 4.9 -6.16 3.22 -0.03 -27.2c0.01,-2.33 0.12,-1.71 -1.53,-4.01l-3.39 -4.74c-0.57,-0.82 -0.39,-1.13 -0.39,-2.37l-1.78 0c0,2.48 -0.26,2.24 -1.41,3.84l-3.41 4.72c-0.67,0.93 -0.5,1.07 -0.49,2.39l0 27.32c-0.99,-0.34 -2.62,-1.28 -3.53,-1.82 0,-3.19 0,-6.38 0,-9.57 -0,-1.3 -0.22,-3.41 0.28,-4.47 0.53,-1.1 0.8,-2.6 0.43,-3.94 -0.86,-3.14 -3.31,-4.16 -4.44,-5.19 -2,-1.83 -1.63,-4.7 -0.06,-6.96 0.88,-0.02 0.83,0.02 1.52,0.27l0.93 -1.47c-2.57,-1.34 -5.54,-0.15 -7.29,1.25 -4.21,3.38 -5.02,9.59 -3.02,14.67 0.74,1.88 1.03,1.56 1.02,4.01 -0.01,1.65 0,3.31 0,4.96l8.81 0.08 0.04 5.38 -18.46 -9.5 6.2 -3.29 -0.74 -1.61c-1.63,0.56 -6.19,3.52 -7.36,3.63l-8.27 -9.62 30.32 -15.76 3.64 4.32 1.39 -0.97c-0.26,-0.8 -2.52,-3.03 -3.25,-3.98 -0.39,-0.51 -0.85,-0.86 -1.11,-1.37l-0.86 0 -32.49 16.93zm59.92 3.17c0.81,-1.28 -0.62,-1.95 -1.28,-1.28 -0.67,0.67 0,2.09 1.28,1.28zm-3.29 9.09c-0,2.26 -0.97,1.77 5.19,1.77 0.21,-1.22 0.11,-2.19 0.11,-3.5l-5.3 0.02 0 1.71zm-0.06 -3.58l5.71 -0c0.87,-3.98 2.78,-4.64 1.75,-7.53l-2.43 -6.7c-0.31,-0.83 -0.13,-0.77 -1.43,-0.77l0.01 6.3c0.88,0.75 2.09,1.34 1.69,3.11 -0.66,2.94 -4.94,2.57 -5.22,-0.34 -0.18,-1.85 1.34,-2.1 1.75,-2.93l-0 -6.14 -1.17 0c-0.75,2.47 -1.82,5.07 -2.72,7.55 -0.68,1.88 -0.19,2 0.48,3.83 0.32,0.88 0.89,3.14 1.59,3.63zm-18.42 -13.18c1.83,1.16 7.06,1.02 8.63,0l-4.31 -6.02 -0.55 0.67c-0.18,0.24 -0.37,0.51 -0.55,0.77l-2.15 2.99c-0.35,0.51 -0.81,1.06 -1.07,1.59zm-0.11 29.45l3.49 1.82c0.21,-8.65 0.04,-18.17 0.04,-26.9l1.77 -0 0 26.9 3.53 -1.78c0.17,-8.67 0.01,-18.67 0.01,-27.49 -1.35,-0.03 -3.09,0.71 -4.42,0.72 -1.32,0.01 -3.06,-0.74 -4.42,-0.72l0 27.45zm-14.15 -10.92c1.8,0 3.55,-0.02 5.3,0 1.25,0.01 1.76,0.37 1.79,-0.75 0.02,-0.68 0.03,-2.11 -0.08,-2.73l-6.96 -0.06 -0.05 3.54zm0.22 -5.32l5.41 0.01c2.24,-0 2.49,-2.44 2.27,-3.89 -0.23,-1.5 -1.7,-2.93 -2.69,-3.6 -3.23,-2.19 -3.88,-4.98 -2.47,-8.64 -4.8,1.25 -6.57,10.6 -2.52,16.12zm9.1 34.57l-21.67 -11.2c-0.16,5.56 -0.05,11.71 -0.05,17.34 0,0.61 6.17,3.57 7.24,4.15 2.46,1.33 5.08,2.75 7.61,4.01 1.2,0.59 14.58,7.75 15.23,7.91 -0.01,-10.97 0.14,-22.81 -0,-33.65l-0.02 -0.6 -6.27 9.02c-0.63,0.92 -1.59,2.11 -2.07,3.03zm10.13 22.2l22.52 -11.74c1.3,-0.7 2.52,-1.31 3.8,-2 1.18,-0.64 2.76,-1.32 3.76,-2.05l-0 -17.59 -21.69 11.23c-1.02,-1.93 -7.28,-10.23 -8.37,-12.1l-0.02 34.25zm0.49 -36.86c0.82,1.57 8.25,12.06 8.58,12.32l30.25 -15.69c-0.29,-0.73 -1.6,-2.48 -2.09,-3.16 -1.16,-1.61 -5.63,-8.34 -6.43,-9.17l-30.31 15.7zm-41.55 -3.42l30.21 15.77c0.29,-0.23 7.81,-10.82 8.56,-12.29l-30.25 -15.82 -8.52 12.33z"/>
 </g>
</svg>
