<?xml version="1.0" encoding="UTF-8"?>
<!DOCTYPE svg PUBLIC "-//W3C//DTD SVG 1.1//EN" "http://www.w3.org/Graphics/SVG/1.1/DTD/svg11.dtd">
<!-- Creator: CorelDRAW 2020 (64-Bit Evaluation Version) -->
<svg xmlns="http://www.w3.org/2000/svg" xml:space="preserve" width="1.05774in" height="1.01585in" version="1.1" style="shape-rendering:geometricPrecision; text-rendering:geometricPrecision; image-rendering:optimizeQuality; fill-rule:evenodd; clip-rule:evenodd"
viewBox="0 0 151.29 145.3"
 xmlns:xlink="http://www.w3.org/1999/xlink"
 xmlns:xodm="http://www.corel.com/coreldraw/odm/2003">
 <defs>
  <style type="text/css">
   <![CDATA[
    .fil0 {fill:#F6B430}
   ]]>
  </style>
 </defs>
 <g id="Layer_x0020_1">
  <metadata id="CorelCorpID_0Corel-Layer"/>
  <g id="_1865380600048">
   <path class="fil0" d="M102.76 137.57l0 -113.99 42.5 -15.46 0 113.99c-7.95,1.85 -34.56,13.6 -42.5,15.46zm-48.3 -129.44l42.5 15.46 0 113.99 -42.5 -15.46 0 -113.99zm-48.3 -0.97l42.5 0 0 113.99 -42.5 0 0 -113.99zm-5.8 119.78c14.15,3.3 44.18,-1.9 56.2,2.73 5.5,2.12 40.58,15.63 43.3,15.63 3.48,0 21.03,-7.38 25.72,-9.06l25.48 -9.3 0 -112.06c0.01,-17.79 4.42,-18.13 -26.36,-6.08 -29.21,11.43 -20.46,11.43 -49.67,0 -4.98,-1.95 -20.58,-8.41 -25.4,-8.41 -56.92,0 -49.32,-3.87 -49.27,12.56l0 113.99z"/>
   <path class="fil0" d="M67.02 26.48c5.31,2.55 12.17,4 17.39,6.76l0 64.72c-6.4,-1.49 -10.98,-4.3 -17.39,-5.8l0 -65.69zm-6.76 -4.83l0 72.45c0,3.71 9.11,5.63 15.17,8.01 6.16,2.41 15.74,7.65 15.74,0.68l0 -71.48c0,-3.13 -2.79,-3.9 -4.91,-4.75 -8.77,-3.52 -26,-12.15 -26,-4.91z"/>
   <path class="fil0" d="M115.32 62.22l0 -17.39c5.42,-1.26 12.45,-5.39 17.39,-5.8l0 16.42c-5.37,2.58 -12.01,4.18 -17.39,6.76zm-6.76 -19.32c0,8.74 -0.99,18.64 0.97,27.05 6.56,0 17.16,-5.1 24.31,-7.57 8.17,-2.83 5.64,-5.16 5.64,-28.17 0,-7.41 -11.16,-1.04 -15.09,0.36 -5.36,1.91 -15.82,4.62 -15.82,8.33z"/>
   <path class="fil0" d="M108.56 127.91c3.12,4.65 4.81,2.63 15.74,-1.65 6.07,-2.38 15.17,-4.3 15.17,-8.01 0,-7.19 -16.27,1.15 -25.3,4.65 -3.66,1.41 -4.6,1.23 -5.61,5.01z"/>
   <path class="fil0" d="M108.56 103.76c3.12,4.65 4.81,2.63 15.74,-1.65 6.07,-2.38 15.17,-4.3 15.17,-8.01 0,-7.19 -16.27,1.16 -25.3,4.65 -3.66,1.41 -4.6,1.23 -5.61,5.01z"/>
   <path class="fil0" d="M108.56 79.61c2.24,3.34 2.96,3.35 7.31,1.61 3.08,-1.24 5.32,-2.04 8.43,-3.26 6.07,-2.38 15.17,-4.3 15.17,-8.01 0,-7.19 -16.27,1.16 -25.3,4.65 -3.66,1.41 -4.6,1.23 -5.61,5.01z"/>
   <path class="fil0" d="M60.26 118.25c0,3.71 9.11,5.63 15.17,8.01 3.12,1.22 5.35,2.02 8.43,3.26 4.35,1.74 5.07,1.73 7.31,-1.61 -0.97,-3.63 -1.72,-3.47 -4.91,-4.75 -2.64,-1.06 -4.13,-1.58 -7.04,-2.62 -6.11,-2.17 -18.96,-9.14 -18.96,-2.29z"/>
   <path class="fil0" d="M109.52 94.1c6.19,0 11.8,-3 16.53,-4.72 8.23,-2.98 12.16,-3.16 13.41,-7.84 -2.47,-3.69 -3.48,-3.11 -8.09,-1.39 -3.59,1.34 -5.63,2.16 -9.15,3.47 -13.34,4.97 -14.27,3.74 -12.7,10.48z"/>
   <path class="fil0" d="M109.52 118.25c6.56,0 17.16,-5.1 24.31,-7.57 3.66,-1.26 4.66,-1.31 5.64,-4.99 -2.47,-3.69 -3.48,-3.11 -8.09,-1.39l-18.34 6.85c-4.81,1.92 -4.63,2.28 -3.51,7.1z"/>
   <path class="fil0" d="M90.2 118.25c1.06,-4.53 1.5,-4.93 -2.81,-6.83l-16.92 -6.3c-2.64,-1.05 -6.43,-2.94 -8.58,-1.57 -9.27,5.92 25.57,14.69 28.3,14.69z"/>
   <path class="fil0" d="M15.82 18.75c18.74,0 25.36,2.45 27.05,-3.86 -3.57,-4.87 -15.03,-2.9 -27.05,-2.9 -4.92,0 -4.92,6.76 0,6.76z"/>
   <path class="fil0" d="M15.82 91.2c18.74,0 25.36,2.45 27.05,-3.86 -3.57,-4.87 -15.03,-2.9 -27.05,-2.9 -4.92,0 -4.92,6.76 0,6.76z"/>
   <path class="fil0" d="M11.96 40c1.01,1.5 1.28,2.9 3.86,2.9 18.74,0 25.36,2.45 27.05,-3.86 -3.57,-4.87 -15.03,-2.9 -27.05,-2.9 -2.85,0 -3.33,1.63 -3.86,3.86z"/>
   <path class="fil0" d="M11.96 64.15c1.01,1.5 1.28,2.9 3.86,2.9 18.74,0 25.36,2.45 27.05,-3.86 -3.57,-4.87 -15.03,-2.9 -27.05,-2.9 -2.85,0 -3.33,1.64 -3.86,3.86z"/>
   <path class="fil0" d="M11.96 100.86c3.49,4.77 13.52,2.9 25.12,2.9 3.58,0 4.36,-0.94 5.8,-2.9 -1.69,-6.31 -8.31,-3.86 -27.05,-3.86 -2.85,0 -3.33,1.64 -3.86,3.86z"/>
   <path class="fil0" d="M11.96 52.56c3.49,4.77 13.52,2.9 25.12,2.9 3.58,0 4.36,-0.94 5.8,-2.9 -1.69,-6.31 -8.31,-3.86 -27.05,-3.86 -2.85,0 -3.33,1.64 -3.86,3.86z"/>
   <path class="fil0" d="M15.82 115.35c18.74,0 25.36,2.45 27.05,-3.86 -1.01,-1.5 -1.28,-2.9 -3.86,-2.9l-23.18 0c-4.92,0 -4.92,6.76 0,6.76z"/>
   <path class="fil0" d="M108.56 31.31c2.24,3.34 2.96,3.35 7.31,1.61l16.86 -6.42c10.77,-4.07 7.16,-7.75 2.88,-7.75l-21.43 7.55c-3.66,1.41 -4.6,1.23 -5.61,5.01z"/>
  </g>
 </g>
</svg>
