<?xml version="1.0" encoding="UTF-8"?>
<!DOCTYPE svg PUBLIC "-//W3C//DTD SVG 1.1//EN" "http://www.w3.org/Graphics/SVG/1.1/DTD/svg11.dtd">
<!-- Creator: CorelDRAW 2020 (64-Bit Evaluation Version) -->
<svg xmlns="http://www.w3.org/2000/svg" xml:space="preserve" width="0.85748in" height="0.85748in" version="1.1" style="shape-rendering:geometricPrecision; text-rendering:geometricPrecision; image-rendering:optimizeQuality; fill-rule:evenodd; clip-rule:evenodd"
viewBox="0 0 102.19 102.19"
 xmlns:xlink="http://www.w3.org/1999/xlink"
 xmlns:xodm="http://www.corel.com/coreldraw/odm/2003">
 <defs>
  <style type="text/css">
   <![CDATA[
    .fil0 {fill:#F6B430}
   ]]>
  </style>
 </defs>
 <g id="Layer_x0020_1">
  <metadata id="CorelCorpID_0Corel-Layer"/>
  <g id="_1865181493824">
   <path class="fil0" d="M30.44 60.88l0 1.63c-4.27,0 -6.52,-0.83 -6.52,-3.81 0,-11.56 16.85,-13.47 16.85,1.09 0,2.05 -4.27,2.72 -6.52,2.72l0 -3.26c-2.64,0 -3.81,-0.37 -3.81,1.63zm2.17 -15.22c-9.47,0 -3.79,-14.33 3.05,-8.48 3.67,3.14 1.21,8.48 -3.05,8.48zm-8.7 -5.98c0,5.21 0.25,3.93 2.72,7.61 -4.87,3.26 -5.02,4.43 -6.52,10.87 -2.54,-1.7 -5.88,-7.64 -5.98,-11.96l3.26 0 0 -3.8 -3.26 0c0.18,-7.99 8.16,-16.31 16.31,-16.31 0,3.57 -0.23,3.26 3.81,3.26l0 -3.26c8.17,0 16.31,8.06 16.31,16.31 -2.89,0 -3.26,-0.23 -3.26,2.17 0,1.93 1.06,1.63 3.26,1.63 0,2.55 -0.86,5.08 -1.79,6.9 -0.87,1.71 -2.77,4.1 -4.19,5.06 -0.06,-2.51 -0.82,-4.57 -1.78,-6.37 -1.6,-2.97 -2.8,-2.6 -4.19,-4.5 1.7,-3.2 3.46,-4.9 1.87,-9.46 -3.21,-9.19 -16.55,-6.05 -16.55,1.85zm0 -15.76c-6.16,1.44 -13.41,10.6 -13.59,18.48l-5.44 0 0 3.8 5.44 0c0.22,10 10.38,20.11 20.11,20.11l0 5.44 3.81 0 0 -5.44c10.03,0 20.11,-10.08 20.11,-20.11l5.44 0 0 -3.8 -5.44 0c0,-10.03 -10.08,-20.11 -20.11,-20.11l0 -5.44 -3.81 0 0 5.44 -2.72 0 0 -8.15 25.55 0c2,0 1.63,-1.16 1.63,-3.8l-27.18 0c0,-2.62 -0.22,-6.52 4.35,-6.52l38.05 0c1.66,0 2.19,0.52 3.26,1.09l2.28 -2.62c-1.37,-0.94 -2.94,-2.27 -4.99,-2.27l-38.05 0c-4.55,0 -8.35,3.47 -8.7,7.61 -0.39,4.67 0,11.41 0,16.31z"/>
   <path class="fil0" d="M57.08 78.28c1.87,-3.9 0.3,-6.97 1.68,-10.27 1.17,-2.79 3.71,-4.18 7.01,-4.95 0.88,1.32 7.07,7.1 7.07,7.61 0,8.62 -11.1,7.61 -15.76,7.61zm17.94 -11.42l-5.57 -5.31c1.57,-2.29 20.12,-18.29 23.88,-21.5 1.79,-1.53 1.34,-1.93 3.98,-2.55 1.72,2.57 1.91,2.53 -4.49,9.1 -1.31,1.34 -1.47,1.95 -2.7,3.27l-15.09 16.98zm0 -15.22c-4.78,2.53 -6.44,7 -11.36,8.21 -1.79,0.44 -3.1,0.97 -4.51,2.02 -6.68,4.99 -4,11.65 -5.14,14.43 -1.11,2.72 -2.92,1.29 -2.92,3.6 0,3.08 6.26,2.17 10.33,2.17 9.16,0 13.38,-3.27 15.15,-10.39 0.87,-3.5 9.27,-11.22 11.71,-14.38l7.22 -8c3.37,-4.03 6.68,-6.51 6.68,-10.17 0,-3.1 -2.99,-5.16 -5.44,-5.21 -3.35,-0.07 -9.4,6.53 -12.37,9.15 -1.27,1.12 -1.71,1.18 -2.99,2.45 -1.33,1.32 -1.26,1.81 -3.12,2.31l0 -14.13c-5.03,0 -3.81,0.6 -3.81,8.15 0,3.08 -0.5,7.61 0.54,9.78z"/>
   <path class="fil0" d="M61.42 10.33l33.7 0 0 16.85 -33.7 0 0 -16.85zm-3.26 -3.26c-1.18,5.06 -0.54,15.99 -0.54,21.74 0,1.27 0.9,2.17 2.17,2.17l36.96 0c1.27,0 2.17,-0.9 2.17,-2.17 0,-5.76 0.63,-16.69 -0.54,-21.74 -4.11,-0.96 -37.2,-1.17 -40.22,0z"/>
   <path class="fil0" d="M74.47 84.8l-30.44 0 0 3.8 30.44 0c0,4.19 1,9.78 -4.35,9.78l-38.05 0c-2.47,0 -2.84,-1.16 -4.35,-2.17 -1.12,0.59 -1.29,0.75 -2.72,1.09 0.78,2.93 3.89,4.89 7.61,4.89l36.96 0c4.25,0 8.7,-3.61 8.7,-7.61l0 -16.31 -3.81 0 0 6.52z"/>
   <path class="fil0" d="M3.8 79.91l33.7 0 0 10.33 -33.7 0 0 -10.33zm20.11 -3.26l-22.29 0c-1.25,0 -1.63,0.38 -1.63,1.63l0 13.59c0,1.25 0.38,1.63 1.63,1.63l37.51 0c3.32,0 2.17,-8.33 2.17,-13.59 0,-4.61 -3.16,-3.26 -13.59,-3.26 0,-9.69 0.86,-8.7 -3.8,-8.7l0 8.7z"/>
   <path class="fil0" d="M3.8 10.33l13.05 0 0 9.78 -13.05 0 0 -9.78zm-3.8 -1.63l0 13.59c0,1.25 0.38,1.63 1.63,1.63l17.39 0c1.25,0 1.63,-0.38 1.63,-1.63 0,-19.16 3.58,-15.76 -17.39,-15.76 -1.67,0 -3.26,0.5 -3.26,2.17z"/>
   <polygon class="fil0" points="64.69,23.92 91.86,23.92 91.86,20.11 64.69,20.11 "/>
   <path class="fil0" d="M74.47 15.22c0,1.42 -0.04,2.17 1.63,2.17l15.76 0 0 -3.8 -15.76 0c-1.25,0 -1.63,0.38 -1.63,1.63z"/>
   <polygon class="fil0" points="18.48,86.97 34.25,86.97 34.25,83.17 18.48,83.17 "/>
   <path class="fil0" d="M6.52 84.8c0,2.99 0.8,2.17 9.24,2.17l0 -3.81c-6.19,0 -9.24,-0.88 -9.24,1.63z"/>
   <path class="fil0" d="M6.52 15.22c0,2.71 0.42,2.17 5.98,2.17 2.32,0 2.32,-3.8 0,-3.8 -4.28,0 -5.98,-0.59 -5.98,1.63z"/>
   <polygon class="fil0" points="64.69,17.39 71.75,17.39 71.75,13.59 64.69,13.59 "/>
   <polygon class="fil0" points="49.47,95.67 52.73,95.67 52.73,91.86 49.47,91.86 "/>
  </g>
 </g>
</svg>
