<?xml version="1.0" encoding="UTF-8"?>
<!DOCTYPE svg PUBLIC "-//W3C//DTD SVG 1.1//EN" "http://www.w3.org/Graphics/SVG/1.1/DTD/svg11.dtd">
<!-- Creator: CorelDRAW 2020 (64-Bit Evaluation Version) -->
<svg xmlns="http://www.w3.org/2000/svg" xml:space="preserve" width="0.91135in" height="0.911874in" version="1.1" style="shape-rendering:geometricPrecision; text-rendering:geometricPrecision; image-rendering:optimizeQuality; fill-rule:evenodd; clip-rule:evenodd"
viewBox="0 0 260 260.15"
 xmlns:xlink="http://www.w3.org/1999/xlink"
 xmlns:xodm="http://www.corel.com/coreldraw/odm/2003">
 <defs>
  <style type="text/css">
   <![CDATA[
    .fil0 {fill:#F6B430}
   ]]>
  </style>
 </defs>
 <g id="Layer_x0020_1">
  <metadata id="CorelCorpID_0Corel-Layer"/>
  <path class="fil0" d="M49.88 260.13l159.23 0c18.76,0.01 26.85,0.89 38.9,-9.42 3.65,-3.13 7.55,-8.34 9.74,-14.36 1.15,-3.16 1.86,-6.27 2.18,-9.86 0.81,-9.11 -4.29,-6.99 -19.39,-6.98l-235.18 -0c-4.66,0 -5.63,1.79 -5.29,6.46 0.74,10.14 5.15,18.11 11.82,24.38 10.93,10.29 20.09,9.78 38,9.78zm78.82 -155.75c-3.46,1.04 -5.03,3.79 -4.14,7.08 0.71,2.62 3.86,4.77 7.25,3.72 6.25,-1.94 4.02,-12.93 -3.12,-10.8zm-35.66 59.77c-0.01,20.53 -3.29,16.77 27.54,16.74l33 0c16.56,0 13.83,1.09 13.81,-18.32 -0.01,-9.64 -1.4,-8.09 -16.43,-8.09l-49.76 0c-8.76,-0.02 -8.16,1.5 -8.16,9.66zm3.5 -17.86l66.99 0.04c2.17,-2.82 8.68,-20.22 10.77,-24.84 2.37,-5.25 1.79,-5.19 -3.09,-12.17l-29.31 -42.97c-1.15,-1.7 -6.27,-9.6 -7.84,-10.83l0 40.54c0.43,1.53 10.76,4.38 9.64,15.72 -1.54,15.62 -24.59,16.38 -27.28,0.98 -1.94,-11.09 6.33,-14.12 9.39,-16.18l-0.53 -40.47c-0.07,0.07 -0.22,0.22 -0.29,0.31l-3.06 4.34c-9.75,13.85 -24.25,34.49 -32.84,47.82 -6.04,9.37 -6.72,4.73 1.98,24.82 1.68,3.87 4.3,9.06 5.46,12.89zm107.58 -93.52c0.81,1.69 2.17,7.39 3.93,7.85 7.16,-0.01 14.32,-0 21.48,0 11.72,0 11,-1 11,10.82 0,10.84 0.5,126.9 -0.19,131.81l-220.65 -0c-0.72,-4.88 -0.2,-120.96 -0.2,-131.81 -0,-14.54 -2.33,-10.25 33.08,-10.85l3 -7.96c-6.92,-0.62 -33.57,-1.18 -38.25,1.43 -4.75,2.66 -6,6.7 -5.95,13.71 0.13,16.87 -0.5,138.56 0.28,140.94 1.45,4.46 12.45,2.64 17.28,2.66l201.66 0.01c4.92,-0 16.3,1.82 17.8,-2.67 0.77,-2.33 0.2,-123.85 0.3,-140.41 0.1,-18.32 -10.23,-15.77 -24.38,-15.8 -4.45,-0.01 -16.61,-0.53 -20.17,0.28zm-143.25 -32.79l34.71 0.01c-0.11,0.14 -0.27,0.13 -0.33,0.31 -0.05,0.18 -0.25,0.2 -0.33,0.26l-5.82 3.7c-10.55,7.28 -18.87,16.66 -24.61,28.28 -1.12,2.26 -2.21,4.86 -3.09,7.39 -0.74,2.1 -1.75,6.41 -2.63,8.24 -4.07,0.51 -10.95,-1.14 -12.68,2.13 -1.12,2.12 -0.61,11.29 -0.61,14.23 0.01,16.61 -2.6,15.52 13.81,15.51 18.65,-0.01 17.91,2.13 17.89,-11.32 -0.02,-19.95 1.98,-20.45 -9.67,-20.38 4.75,-21.46 25.68,-42.64 46.24,-46.23 0.02,11.12 -0.63,9.68 15.73,9.66 3.51,-0.01 9.36,0.35 12.59,-0.04 4.76,-0.59 3.79,-5.24 3.77,-9.49 10.14,1.25 22.56,9.84 29.52,16.41 6.34,5.98 14.71,17.47 17.13,29.7 -11.72,-0.1 -9.65,0.48 -9.66,19.85 -0.01,13.91 -1.15,11.83 17.88,11.83 16.72,-0 14.21,1.24 14.21,-15.5 0,-3.06 0.56,-12.11 -0.56,-14.18 -1.79,-3.28 -8.93,-1.65 -13.12,-2.19 -1.39,-2.91 -1.79,-7.97 -5.48,-15.32 -2.75,-5.48 -4.9,-8.9 -8.25,-13.24 -3.84,-4.97 -6.06,-6.72 -10.41,-10.56 -4.6,-4.06 -6.19,-4.74 -10.71,-7.59l-1.96 -1.42 34.71 -0.05c1.97,0.55 4.29,12.93 17.81,11.7 18.59,-1.69 18.66,-29.02 0.49,-31.44 -13.92,-1.86 -16.89,11.19 -18.3,11.62l-52.89 -0c-0.04,-13.29 1.42,-11.78 -15.73,-11.78 -17.7,-0 -16.38,-1.74 -16.36,11.62l-53.3 0.17c-2.21,-2.99 -5.28,-13.08 -17.79,-11.65 -18.44,2.1 -18.87,29.13 -0.52,31.42 4.51,0.56 8.82,-0.84 11.71,-2.94 5.17,-3.75 4.44,-7.28 6.6,-8.71zm67.57 223.9c5.28,-0 12.23,1.05 13.45,-2.44 1.73,-4.93 -2.47,-5.7 -6.12,-5.69 -3.99,0.01 -14.49,-1 -16.73,1.25 -1.59,1.6 -1.5,4.98 0.51,6.21 1.96,1.2 6.34,0.67 8.88,0.67z"/>
 </g>
</svg>
