<?xml version="1.0" encoding="UTF-8"?>
<!DOCTYPE svg PUBLIC "-//W3C//DTD SVG 1.1//EN" "http://www.w3.org/Graphics/SVG/1.1/DTD/svg11.dtd">
<!-- Creator: CorelDRAW 2020 (64-Bit Evaluation Version) -->
<svg xmlns="http://www.w3.org/2000/svg" xml:space="preserve" width="2.22931in" height="1.71712in" version="1.1" style="shape-rendering:geometricPrecision; text-rendering:geometricPrecision; image-rendering:optimizeQuality; fill-rule:evenodd; clip-rule:evenodd"
viewBox="0 0 993965.53 765599.82"
 xmlns:xlink="http://www.w3.org/1999/xlink"
 xmlns:xodm="http://www.corel.com/coreldraw/odm/2003">
 <defs>
  <style type="text/css">
   <![CDATA[
    .fil3 {fill:#2F74B9}
    .fil5 {fill:#333333}
    .fil0 {fill:#CCCCCC}
    .fil2 {fill:#D0AE93}
    .fil4 {fill:#F9D4B7}
    .fil1 {fill:white}
   ]]>
  </style>
 </defs>
 <g id="Layer_x0020_1">
  <metadata id="CorelCorpID_0Corel-Layer"/>
  <path class="fil0" d="M931413.17 400882.78c-15842.15,0 -28686.14,12843.99 -28686.14,28687.9 0,15842.15 12843.99,28686.14 28686.14,28686.14 15843.91,0 28687.9,-12843.99 28687.9,-28686.14 0,-15843.91 -12843.99,-28687.9 -28687.9,-28687.9zm34370.01 63391.42l-68520.6 0c-7363.75,0 -13769.07,3907.44 -15122.45,11557.31l-12865.06 72807.19c-1241.04,7021.45 3531.79,13309.16 10609.41,13976.2l0 0c7075.87,665.28 13877.9,-4534.1 15118.94,-11555.55l8278.29 -46843.62 0 77397.47 547.67 0 0 81427.78c0,7283 5957.7,13238.95 13240.7,13238.95l0 0c7281.25,0 13238.95,-5955.95 13238.95,-13238.95l0 -81427.78 2648.84 0 0 81427.78c0,7283 5957.7,13238.95 13240.7,13238.95l0 0c7281.25,0 13238.95,-5955.95 13238.95,-13238.95l0 -98862.04c0,-1002.31 -112.34,-1980.05 -326.5,-2920.92l0 -60733.8 8929.53 50535.15c1241.04,7021.45 8044.83,12220.84 15118.94,11555.55l1.76 0c7075.87,-667.04 11848.7,-6954.75 10607.66,-13976.2l-12865.06 -72807.19c-1241.04,-7023.21 -8013.23,-11557.31 -15120.7,-11557.31z"/>
  <path class="fil0" d="M297400.62 400882.78c-15843.91,0 -28687.9,12843.99 -28687.9,28687.9 0,15842.15 12843.99,28686.14 28687.9,28686.14 15842.15,0 28686.14,-12843.99 28686.14,-28686.14 0,-15843.91 -12843.99,-28687.9 -28686.14,-28687.9zm34368.25 63391.42l-68520.6 0c-7361.99,0 -13769.07,3907.44 -15120.7,11557.31l-12866.81 72807.19c-1241.04,7021.45 3531.79,13309.16 10609.41,13976.2l1.76 0c7074.11,665.28 13877.9,-4534.1 15117.19,-11555.55l8278.29 -46843.62 0 77397.47 549.43 0 0 81427.78c0,7283 5957.7,13238.95 13238.95,13238.95l0 0c7283,0 13240.7,-5955.95 13240.7,-13238.95l0 -81427.78 2647.09 0 0 81427.78c0,7283 5959.46,13238.95 13240.7,13238.95l0 0c7283,0 13240.7,-5955.95 13240.7,-13238.95l0 -98862.04c0,-1002.31 -114.1,-1980.05 -328.25,-2920.92l0 -60733.8 8931.29 50535.15c1239.29,7021.45 8043.07,12220.84 15118.94,11555.55l0 0c7077.62,-667.04 11850.46,-6954.75 10609.41,-13976.2l-12866.81 -72807.19c-1241.04,-7023.21 -8011.48,-11557.31 -15120.7,-11557.31z"/>
  <path class="fil0" d="M505769.23 400882.78c-15843.91,0 -28687.9,12843.99 -28687.9,28687.9 0,15842.15 12843.99,28686.14 28687.9,28686.14 15842.15,0 28686.14,-12843.99 28686.14,-28686.14 0,-15843.91 -12843.99,-28687.9 -28686.14,-28687.9zm34370.01 63391.42l-68522.35 0c-7361.99,0 -13769.07,3907.44 -15120.7,11557.31l-12866.81 72807.19c-1241.04,7021.45 3533.55,13309.16 10609.41,13976.2l1.76 0c7074.11,665.28 13877.9,-4534.1 15117.19,-11555.55l8278.29 -46843.62 0 77397.47 549.43 0 0 81427.78c0,7283 5957.7,13238.95 13238.95,13238.95l0 0c7283,0 13240.7,-5955.95 13240.7,-13238.95l0 -81427.78 2648.84 0 0 81427.78c0,7283 5957.7,13238.95 13238.95,13238.95l0 0c7283,0 13240.7,-5955.95 13240.7,-13238.95l0 -98862.04c0,-1002.31 -114.1,-1980.05 -328.25,-2920.92l0 -60733.8 8931.29 50535.15c1239.29,7021.45 8043.07,12220.84 15118.94,11555.55l0 0c7077.62,-667.04 11850.46,-6954.75 10609.41,-13976.2l-12866.81 -72807.19c-1241.04,-7023.21 -8011.48,-11557.31 -15118.94,-11557.31z"/>
  <path class="fil0" d="M726606.19 400882.78c-15842.15,0 -28686.14,12843.99 -28686.14,28687.9 0,15842.15 12843.99,28686.14 28686.14,28686.14 15843.91,0 28687.9,-12843.99 28687.9,-28686.14 0,-15843.91 -12843.99,-28687.9 -28687.9,-28687.9zm34370.01 63391.42l-68520.6 0c-7363.75,0 -13769.07,3907.44 -15122.45,11557.31l-12865.06 72807.19c-1241.04,7021.45 3531.79,13309.16 10609.41,13976.2l0 0c7075.87,665.28 13879.66,-4534.1 15118.94,-11555.55l8278.29 -46843.62 0 77397.47 547.67 0 0 81427.78c0,7283 5957.7,13238.95 13240.7,13238.95l0 0c7281.25,0 13240.7,-5955.95 13240.7,-13238.95l0 -81427.78 2647.09 0 0 81427.78c0,7283 5957.7,13238.95 13240.7,13238.95l0 0c7281.25,0 13238.95,-5955.95 13238.95,-13238.95l0 -98862.04c0,-1002.31 -112.34,-1980.05 -326.5,-2920.92l0 -60733.8 8929.53 50535.15c1241.04,7021.45 8044.83,12220.84 15118.94,11555.55l1.76 0c7075.87,-667.04 11848.7,-6954.75 10607.66,-13976.2l-12865.06 -72807.19c-1241.04,-7023.21 -8013.23,-11557.31 -15120.7,-11557.31z"/>
  <path class="fil1" d="M807200.17 356429.97c-23539.42,0 -42621.97,19082.55 -42621.97,42621.97 0,23537.66 19082.55,42620.21 42621.97,42620.21 23537.66,0 42620.21,-19082.55 42620.21,-42620.21 0,-23539.42 -19082.55,-42621.97 -42620.21,-42621.97zm51063.51 94182.25l-101804.03 0c-10939.42,0 -20458.76,5804.99 -22466.89,17170.96l-19115.9 108174.25c-1843.13,10430.37 5248.54,19774.16 15763.16,20762.43l1.76 0c10511.11,988.27 20618.49,-6735.33 22461.63,-17169.21l12298.07 -69594.88 0 114993.83 816.24 0 0 120977.86c0,10821.81 8850.54,19672.35 19670.6,19672.35l0 0c10818.3,0 19670.6,-8850.54 19670.6,-19672.35l0 -120977.86 3935.52 0 0 120977.86c0,10821.81 8852.3,19672.35 19670.6,19672.35l0 0c10820.06,0 19672.35,-8850.54 19672.35,-19672.35l0 -146881.76c0,-1490.3 -168.51,-2941.99 -487.99,-4341.01l0 -90234.44 13268.79 75080.39c1843.13,10433.88 11950.51,18157.47 22463.38,17169.21l0 0c10514.62,-988.27 17606.29,-10332.07 15763.16,-20762.43l-19115.9 -108174.25c-1843.13,-10433.88 -11904.87,-17170.96 -22465.14,-17170.96z"/>
  <path class="fil1" d="M426969.23 356429.97c-23537.66,0 -42620.21,19082.55 -42620.21,42621.97 0,23537.66 19082.55,42620.21 42620.21,42620.21 23539.42,0 42621.97,-19082.55 42621.97,-42620.21 0,-23539.42 -19082.55,-42621.97 -42621.97,-42621.97zm51065.27 94182.25l-101805.79 0c-10939.42,0 -20457,5804.99 -22466.89,17170.96l-19114.15 108174.25c-1844.89,10430.37 5246.78,19774.16 15761.4,20762.43l1.76 0c10511.11,988.27 20620.25,-6735.33 22461.63,-17169.21l12299.83 -69594.88 0 114993.83 814.49 0 0 120977.86c0,10821.81 8852.3,19672.35 19670.6,19672.35l0 0c10820.06,0 19672.35,-8850.54 19672.35,-19672.35l0 -120977.86 3933.77 0 0 120977.86c0,10821.81 8852.3,19672.35 19672.35,19672.35l0 0c10818.3,0 19670.6,-8850.54 19670.6,-19672.35l0 -146881.76c0,-1490.3 -168.51,-2941.99 -486.24,-4341.01l0 -90234.44 13268.79 75080.39c1841.38,10433.88 11950.51,18157.47 22461.63,17169.21l1.76 0c10514.62,-988.27 17606.29,-10332.07 15761.4,-20762.43l-19114.15 -108174.25c-1844.89,-10433.88 -11904.87,-17170.96 -22465.14,-17170.96z"/>
  <g id="_1875153649184">
   <path class="fil2" d="M497222.37 155584.85c-1227,2550.54 -1913.35,5408.27 -1913.35,8427.5 0,10756.86 8722.4,19477.51 19479.26,19477.51 6501.86,0 12262.97,-3191.25 15798.27,-8085.2 78.99,-110.59 2543.52,-6659.85 2622.51,-6773.95l-2390.8 7068.85c-3445.78,10186.37 8720.64,19479.26 19477.51,19479.26 10756.86,0 19479.26,-8722.4 19479.26,-19479.26 0,-1321.79 -133.41,-2611.98 -384.42,-3860.04l30325.65 -11278.21c0,0 47196.45,-34283.99 19145.74,-72127.87 -28050.7,-37845.63 -70346.17,-92609.44 -101512.64,-54319.71 -31166.47,38291.49 -42297.23,78362.92 -42297.23,78362.92l22170.23 43108.2z"/>
   <path class="fil3" d="M617438.41 148968.88c-31965.16,0 -57879.58,25912.67 -57879.58,57879.58 0,31965.16 25914.42,57879.58 57879.58,57879.58 31966.92,0 57879.58,-25914.42 57879.58,-57879.58 0,-31966.92 -25912.67,-57879.58 -57879.58,-57879.58zm69345.62 127899.26l-138250.64 0c-14855.64,0 -27782.13,7883.34 -30509.96,23318.24l-25958.31 146901.06c-2504.9,14165.78 7125.02,26853.54 21404.9,28196.4l1.76 0c14274.61,1342.85 28001.55,-9147.2 30502.94,-23314.73l16702.28 -94510.5 0 156160.6 1107.63 0 0 164289.69c0,14695.9 12020.73,26714.87 26713.11,26714.87l0 0c14692.39,0 26713.11,-12018.97 26713.11,-26714.87l0 -164289.69 5343.33 0 0 164289.69c0,14695.9 12020.73,26714.87 26714.87,26714.87l0 0c14692.39,0 26713.11,-12018.97 26713.11,-26714.87l0 -199467.16c0,-2022.18 -228.2,-3995.21 -660.02,-5894.51l0 -122538.38 18018.8 101960.26c2501.39,14167.53 16228.33,24657.58 30502.94,23314.73l1.76 0c14279.88,-1342.85 23909.8,-14030.62 21404.9,-28196.4l-25958.31 -146901.06c-2503.15,-14167.53 -16166.89,-23318.24 -30508.21,-23318.24z"/>
   <path class="fil4" d="M387338.4 144977.19c0,0 20035.71,18257.53 41853.12,21373.3 21815.65,3115.77 42744.84,-2227.56 57881.34,-7125.02 15136.5,-4895.71 106410.11,28494.81 106410.11,28494.81 0,0 19147.5,6235.05 28496.56,-13800.66 9350.82,-20035.71 -14694.14,-28494.81 -14694.14,-28494.81l-99732.7 -28942.43c0,0 -15582.36,-16916.43 -2671.66,-29384.78 12910.69,-12466.59 55709.96,-27590.8 55709.96,-27590.8l-17235.91 -18094.28c0,0 45678.06,39005.92 53691.29,45239.22 8013.23,6233.29 12761.49,59859.63 12761.49,59859.63 0,0 3860.04,2043.24 5497.8,3284.28 7795.57,-2643.58 23553.46,1613.18 34954.54,9371.88l-14478.23 -80084.93c0,0 445.86,-9349.06 -14692.39,-22707.38 -15138.25,-13356.56 -57881.34,-53873.85 -57881.34,-53873.85 0,0 -7570.88,-7123.26 -27160.73,2671.66 -19589.85,9796.68 -97061.04,38735.6 -97061.04,38735.6 0,0 -37845.63,1335.83 -47196.45,1335.83 -9349.06,0 -4451.6,99732.7 -4451.6,99732.7z"/>
   <polygon class="fil1" points="396689.22,36339.53 393571.7,160561.3 351260.43,159137.7 357369.09,34575.39 "/>
   <polygon class="fil5" points="-0,16749.67 357507.76,23874.69 355727.82,159225.47 -0,152102.2 "/>
  </g>
 </g>
</svg>
