<?xml version="1.0" encoding="UTF-8"?>
<!DOCTYPE svg PUBLIC "-//W3C//DTD SVG 1.1//EN" "http://www.w3.org/Graphics/SVG/1.1/DTD/svg11.dtd">
<!-- Creator: CorelDRAW 2020 (64-Bit Evaluation Version) -->
<svg xmlns="http://www.w3.org/2000/svg" xml:space="preserve" width="1.33333in" height="0.2in" version="1.1" style="shape-rendering:geometricPrecision; text-rendering:geometricPrecision; image-rendering:optimizeQuality; fill-rule:evenodd; clip-rule:evenodd"
viewBox="0 0 727.35 109.1"
 xmlns:xlink="http://www.w3.org/1999/xlink"
 xmlns:xodm="http://www.corel.com/coreldraw/odm/2003">
 <defs>
  <style type="text/css">
   <![CDATA[
    .fil2 {fill:none}
    .fil1 {fill:white}
    .fil0 {fill:white;fill-rule:nonzero}
   ]]>
  </style>
 </defs>
 <g id="Layer_x0020_1">
  <metadata id="CorelCorpID_0Corel-Layer"/>
  <g id="_1863627841264">
   <g>
    <path class="fil0" d="M236.39 80.76l0 -1.33c2.2,-0.12 3.98,-0.44 5.34,-0.97 1.34,-0.55 2.53,-1.35 3.57,-2.46 1.21,-1.27 2.03,-2.86 2.46,-4.8 0.41,-1.94 0.62,-4.92 0.62,-9l0 -43.63c0,-4.08 -0.21,-7.06 -0.62,-9 -0.43,-1.94 -1.25,-3.53 -2.46,-4.8 -1.03,-1.15 -2.22,-1.98 -3.61,-2.48 -1.37,-0.5 -3.14,-0.83 -5.3,-0.95l0 -1.33 31.33 0c9.44,3.17 24.65,11.54 26.77,22.53 0.82,-13.67 -22.05,-22.53 -22.05,-22.53 3.8,0 7.71,0.03 8.9,0.12 4.33,0.35 7.92,1.41 10.76,3.21 2.48,1.57 4.39,3.65 5.73,6.22 1.34,2.56 2.03,5.45 2.03,8.66 0,5.19 -1.63,13.96 -4.7,17.3 -7.91,-15.17 -15.18,-11.22 -25.19,-21.05 -9.21,10.73 -3.95,27.38 7.44,32.02 -15.88,7.78 -9.26,31.09 9.19,34.07 -2.24,0.01 -9.09,0.22 -12.03,0.22l-38.19 0z"/>
    <path class="fil1" d="M269.98 14.45c0,0 5.32,8.27 10.99,12 1,0.66 0.73,1.04 0.21,1.51 -0.74,0.67 -1.3,1.45 -1.88,3.26 -0.81,2.51 1.77,2.33 2.38,1.48 1.21,-1.68 2.51,-4.54 4.3,-3.41 1.39,0.88 0.07,1.51 -0.4,4.41 -0.58,3.61 2.05,2.49 2.59,1.04 1.22,-3.27 1.51,-3.35 4.06,-1.51 4.29,3.11 8.63,6.94 11.06,11.74 4.41,8.72 7.02,21.08 -2.66,30.24 -9.67,9.16 -25.6,6.2 -29.51,-6.31 -3.92,-12.51 6.22,-22.1 15.34,-20.05 9.13,2.04 12.93,15.35 5.28,19.77 -7.65,4.43 -14.11,-3.23 -12.33,-9.45 0.7,-2.43 3.17,-1.78 2.56,0.76 -0.61,2.54 4.34,8.64 7.92,5.47 4.26,-3.77 -0.44,-11.33 -5.29,-11.27 -4.85,0.06 -8.62,2.98 -8.62,10.03 0,7.05 10.06,11.29 15.89,8.15 5.82,-3.14 10.16,-10.65 4.24,-19.89 -8.11,-9.59 -17.19,-6.24 -24.69,-15.55 -7.49,-9.31 -3.03,-20.02 -1.45,-22.43z"/>
    <path class="fil0" d="M313.04 81.34l0 -33.21c4.42,0 9.12,-7.51 14.12,-8.24l0 41.45 -14.12 0zm36.16 -54.46l0 54.46 -14.12 0 0 -54.46 14.12 0zm39.47 14.07l-13.13 40.4 -9.84 0 -13.55 -40.4 15.06 0 8.29 27.05 8.53 -27.05 4.64 0zm42.45 38.96c-3.45,1.4 -6.82,2.09 -10.1,2.09 -4.85,0 -7.84,-1.57 -8.98,-4.71 -2.35,3.24 -5.73,4.87 -10.14,4.87 -8.24,0 -12.36,-3.95 -12.36,-11.86 0,-6.01 3.77,-10.24 11.29,-12.66 6.92,-2.24 10.37,-4.95 10.37,-8.1 0,-4.15 -1.98,-6.21 -5.96,-6.21 -4.59,0 -6.89,2.01 -6.89,6.02 0,1.26 0.37,2.91 1.11,4.98l-7.01 -1.4c-0.2,-1.26 -0.29,-2.44 -0.29,-3.53 0,-6.4 5.66,-9.61 16.96,-9.61 10.75,0 16.12,2.98 16.12,8.96l0 24.52c0,2.53 0.79,3.79 2.37,3.79 0.49,0 1.22,-0.29 2.17,-0.86l1.35 3.7zm-20.01 -22.85c-0.88,1.04 -1.9,1.92 -3.07,2.61 -2.92,1.77 -4.39,4.72 -4.39,8.89 0,5.35 1,8.02 3.03,8.02 2.95,0 4.43,-2.64 4.43,-7.94l0 -11.59zm79.84 24.29l-14.12 0 0 -30.34c0,-2.65 -0.75,-3.98 -2.27,-3.98 -3.5,0 -5.26,3.82 -5.26,11.44l0 22.88 -14.12 0 0 -29.7c0,-3.02 -0.67,-4.54 -2.02,-4.54 -3.52,0 -5.27,3.8 -5.27,11.4l0 22.84 -14.12 0 0 -40.52c4.77,0 9.48,-0.33 14.12,-1l0 6.96c3.33,-4.61 7.43,-6.91 12.32,-6.91 4.07,0 7.11,2.18 9.1,6.51 3.16,-4.39 7.11,-6.6 11.86,-6.6 6.53,0 9.8,3.41 9.8,10.21l0 31.34z"/>
    <path class="fil1" d="M305.41 17.84c0,0 4.14,3.87 4.4,10.29 0.26,6.42 3.67,6.51 8.19,7.67 0,0 -2.3,-8.16 -6.99,-13.24 0,0 7.04,4.81 8.81,17.26 0,0 -2.25,-0.5 -3.06,-1.39 -0.81,-0.89 -4.7,-4.84 -8.86,-2.59 -4.17,2.25 -6.13,4.49 -6.13,4.49 0,0 2.91,-0.78 4.98,0.68 2.06,1.46 6.59,4.21 10.02,-0.53 0,0 -4.19,-2.38 -9.39,-1.62 0,0 3.57,-2.54 12.73,2.44 0,0 1.36,-1.09 2.39,-2 0,0 7.18,-1.09 4.19,-10.6 0,0 -0.55,1.74 -2.31,2.94 -1.76,1.2 -4,3.22 -2.68,6.85 0,0 3.64,-3.75 4.1,-5.79 0,0 -0.5,3.81 -4.99,7.31 0,0 -1.02,-3.89 -1.18,-5.29 -0.17,-1.41 1.5,-2.91 0.18,-7.66 -1.32,-4.75 -9.29,-8.87 -14.4,-9.2z"/>
   </g>
   <polygon class="fil0" points="361.59,91.22 365.54,103.57 365.61,103.57 369.61,91.22 375.01,91.22 375.01,108.85 370.91,108.85 370.91,104.48 371.29,96.43 371.22,96.42 366.97,108.85 364.21,108.85 360.01,96.53 359.93,96.54 360.32,104.48 360.32,108.85 356.22,108.85 356.22,91.22 "/>
   <path id="1" class="fil0" d="M396.9 101.63c0,2.17 -0.69,3.96 -2.06,5.36 -1.38,1.41 -3.17,2.11 -5.39,2.11 -2.24,0 -4.05,-0.7 -5.44,-2.11 -1.39,-1.41 -2.08,-3.19 -2.08,-5.36l0 -3.17c0,-2.16 0.69,-3.95 2.08,-5.36 1.39,-1.41 3.19,-2.12 5.42,-2.12 2.21,0 4.01,0.71 5.4,2.12 1.39,1.41 2.08,3.2 2.08,5.36l0 3.17zm-4.08 -3.19c0,-1.26 -0.3,-2.29 -0.89,-3.09 -0.59,-0.81 -1.43,-1.21 -2.51,-1.21 -1.11,0 -1.95,0.4 -2.54,1.2 -0.59,0.8 -0.88,1.83 -0.88,3.1l0 3.19c0,1.28 0.29,2.32 0.89,3.12 0.59,0.81 1.44,1.21 2.55,1.21 1.07,0 1.9,-0.4 2.49,-1.21 0.59,-0.81 0.88,-1.84 0.88,-3.12l0 -3.19z"/>
   <polygon id="2" class="fil0" points="415.8,94.37 411.15,94.37 411.15,108.85 407.04,108.85 407.04,94.37 402.43,94.37 402.43,91.22 415.8,91.22 "/>
   <polygon id="3" class="fil0" points="426.36,108.85 422.28,108.85 422.28,91.22 426.36,91.22 "/>
   <path id="4" class="fil0" d="M448.53 101.63c0,2.17 -0.69,3.96 -2.06,5.36 -1.38,1.41 -3.17,2.11 -5.39,2.11 -2.24,0 -4.05,-0.7 -5.44,-2.11 -1.39,-1.41 -2.08,-3.19 -2.08,-5.36l0 -3.17c0,-2.16 0.69,-3.95 2.08,-5.36 1.39,-1.41 3.19,-2.12 5.42,-2.12 2.21,0 4.01,0.71 5.4,2.12 1.39,1.41 2.08,3.2 2.08,5.36l0 3.17zm-4.08 -3.19c0,-1.26 -0.3,-2.29 -0.89,-3.09 -0.59,-0.81 -1.43,-1.21 -2.51,-1.21 -1.11,0 -1.95,0.4 -2.54,1.2 -0.59,0.8 -0.88,1.83 -0.88,3.1l0 3.19c0,1.28 0.29,2.32 0.89,3.12 0.59,0.81 1.44,1.21 2.55,1.21 1.07,0 1.9,-0.4 2.49,-1.21 0.59,-0.81 0.88,-1.84 0.88,-3.12l0 -3.19z"/>
   <polygon id="5" class="fil0" points="470.17,108.85 466.09,108.85 459.63,97.62 459.56,97.64 459.56,108.85 455.46,108.85 455.46,91.22 459.56,91.22 466.01,102.46 466.09,102.44 466.09,91.22 470.17,91.22 "/>
   <path id="6" class="fil0" d="M486.85 104.17c0,-0.62 -0.21,-1.1 -0.62,-1.43 -0.41,-0.34 -1.15,-0.69 -2.22,-1.07 -2.23,-0.7 -3.88,-1.45 -4.95,-2.26 -1.07,-0.8 -1.61,-1.96 -1.61,-3.48 0,-1.48 0.64,-2.67 1.92,-3.58 1.28,-0.91 2.9,-1.37 4.87,-1.37 1.95,0 3.55,0.5 4.8,1.51 1.25,1 1.85,2.3 1.81,3.88l-0.02 0.07 -3.97 0c0,-0.7 -0.24,-1.26 -0.72,-1.7 -0.47,-0.44 -1.14,-0.66 -1.98,-0.66 -0.82,0 -1.47,0.18 -1.94,0.54 -0.47,0.36 -0.7,0.81 -0.7,1.34 0,0.51 0.23,0.93 0.71,1.23 0.47,0.31 1.36,0.7 2.66,1.17 2,0.6 3.51,1.33 4.52,2.2 1.01,0.87 1.52,2.07 1.52,3.59 0,1.55 -0.6,2.76 -1.81,3.63 -1.21,0.87 -2.81,1.31 -4.8,1.31 -2,0 -3.73,-0.5 -5.19,-1.51 -1.46,-1.01 -2.17,-2.45 -2.13,-4.34l0.02 -0.08 3.98 0c0,1.01 0.27,1.74 0.82,2.17 0.55,0.43 1.38,0.65 2.49,0.65 0.85,0 1.48,-0.17 1.9,-0.51 0.41,-0.34 0.62,-0.78 0.62,-1.33z"/>
  </g>
  <rect class="fil2" x="-0" width="727.35" height="109.1"/>
 </g>
</svg>
