<?xml version="1.0" encoding="UTF-8"?>
<!DOCTYPE svg PUBLIC "-//W3C//DTD SVG 1.1//EN" "http://www.w3.org/Graphics/SVG/1.1/DTD/svg11.dtd">
<!-- Creator: CorelDRAW 2020 (64-Bit Evaluation Version) -->
<svg xmlns="http://www.w3.org/2000/svg" xml:space="preserve" width="1.12596in" height="0.979165in" version="1.1" style="shape-rendering:geometricPrecision; text-rendering:geometricPrecision; image-rendering:optimizeQuality; fill-rule:evenodd; clip-rule:evenodd"
viewBox="0 0 109.4 95.14"
 xmlns:xlink="http://www.w3.org/1999/xlink"
 xmlns:xodm="http://www.corel.com/coreldraw/odm/2003">
 <defs>
  <style type="text/css">
   <![CDATA[
    .fil0 {fill:#F6B430}
   ]]>
  </style>
 </defs>
 <g id="Layer_x0020_1">
  <metadata id="CorelCorpID_0Corel-Layer"/>
  <path class="fil0" d="M30.24 62.51c-2.15,0.28 -6,0.09 -8.33,0.08 -2.93,-0.01 -5.9,-0.04 -8.83,-0.01 -12.6,0.13 -11.28,-1.34 -11.07,23.87 0.06,7.57 0.6,8.71 8.86,8.61 11.52,-0.15 23.22,-0.05 34.75,-0.01 26.79,0.09 23.25,1.47 24.13,-10.94 4.01,-0.32 8.73,-0.03 12.83,-0.07 4.41,-0.05 8.63,0.72 10.06,-3.25 0.66,-1.84 0.42,-22.46 0.36,-26.06 16.53,0.26 16.51,0.9 16.36,-11.58 -0.15,-12.84 0.45,-11.55 -16.38,-11.49 0,-3.32 0.47,-26.64 -0.48,-28.75 -1.16,-2.59 -3.74,-2.84 -7.16,-2.83l-48.83 -0.01c-7.71,0.08 -6.23,5.36 -6.19,13.57l0.01 39.17c0.03,2.15 0.26,7.95 -0.1,9.71zm49.6 -18.71l4.49 0 -0.01 -4.49 -4.47 -0.01 -0.02 4.49zm11.67 -1.61l10.76 0.07 0.09 -2.8 -10.86 0.01 0.01 2.72zm-40.5 -28.38c1.55,0.45 10.35,0.18 12.65,0.18l-0.01 -2.82 -12.63 0.01 -0.01 2.63zm0 4.68l22.66 0.14 -0 -2.69c-6.58,-0.25 -15.95,-0.1 -22.66,-0.06l0 2.62zm28.85 30.47l22.61 0 0.01 -2.78 -22.63 -0 0.01 2.78zm-70.64 22.87l-0 3.86 0 1.1 0.04 3.19 9.2 -0 0.08 -9.24 -3.25 -0.09 -1.11 0.01 -4.96 -0 0 1.17zm2.82 5.25l1.04 0.1 2.63 -0.02 0 -3.68 -1.25 0.01 -2.42 0.02 0 3.57zm25.21 -58.42l9.32 0 -0 -9.32 -9.32 0 -0 9.32zm2.83 -5.58l0.01 2.76 3.67 0 -0 -3.68 -2.81 0 -0.87 -0 0 0.92zm4.23 73.84l16.92 0.05 0.02 -8.09 -16.87 -0.06 -0.08 8.1zm-26.27 -76.05l0 40.82c0.02,6.49 -0.55,5.69 5.26,5.69 4.02,0 3.41,0.12 3.37,-8.73l-0.01 -35.31c0,-3.57 0.04,-3.89 -1.08,-6.95 -0.42,-1.14 -1.68,-5.51 -2.31,-6 -2.24,-1.73 -2.92,2.5 -3.41,3.98 -0.73,2.19 -1.81,4.09 -1.81,6.48zm2.83 3.19l-0.01 30.98 2.97 0.06 -0.02 -31.02 0.02 -2.76 -2.97 0.01 0 2.74zm0.01 36.63l-0.03 3.8 2.97 0.06 -0.02 -3.82 -0.01 -2.79 -2.86 -0.01 -0.05 2.77zm-15.31 -45.17c-6.96,0.04 -5.37,-0.87 -5.49,10.04 -0.02,1.66 -0.26,9.37 0.32,10.22 1.03,1.51 2.53,0.36 2.57,-1.64l-0.02 -15.69 2.74 -0.08c-0.01,10.95 0.03,21.9 0,32.84 -0.02,9.99 -0.37,4.69 2.54,13.97 0.35,1.12 0.19,2.72 0.82,3.33 0.99,0.95 2.12,0.31 2.33,-1.05 1.03,-6.72 2.96,-5.78 2.93,-13.49 -0.03,-5.81 0.31,-39.6 -0.29,-41.19 -0.67,-1.78 -2.96,-3.32 -5.43,-2.48 -2.31,0.78 -2.65,2.43 -3.02,5.22zm2.94 40.49l2.86 0.09c0.22,-1.43 0.3,-6.52 -0.08,-7.77l-2.69 0.02 -0.09 7.66zm0.1 -10.53l2.64 0.04c0.47,-1.24 0.41,-30.46 -0.02,-32.23 -3.51,-1.44 -2.69,2.42 -2.72,5.11 -0.06,4.92 -0.32,24.87 0.1,27.09zm67.99 5.46c0,13.18 -1.83,10.95 12.61,10.96l11.03 0c7.66,0.01 6.32,1.32 6.33,-13.72 0,-4.71 -2.88,-3.53 -10.74,-3.53l-13.52 -0c-6.3,0 -5.71,0.06 -5.71,6.29zm-43.4 -35.22l-0.02 56.88c9.2,0 18.41,-0.03 27.62,0 2.15,0.01 4.49,-0.25 6.21,0.55 1.5,0.7 2.52,2.26 2.66,4.26 0.3,4.27 -0.04,9.35 0.02,13.74 3.11,0.26 13.11,0.09 17.32,0.07 2.52,-0.01 3.12,-0.46 3.16,-3.02 0.12,-7.78 -0.01,-15.69 -0.01,-23.49 -2.75,0.01 -11.51,0.42 -13.44,-0.45 -3.89,-1.75 -2.91,-6.56 -2.93,-11.11 -0.07,-12.91 -0.14,-11.48 16.35,-11.5l-0.01 -25.94c0.01,-3.44 -1.99,-2.83 -5.07,-2.82l-46.61 -0.01c-3.12,-0.01 -5.23,-0.62 -5.25,2.83zm-28.36 62.23l62 0.05c-0.07,-3.48 -2.38,-2.79 -5.5,-2.77l-50.75 -0c-3.15,-0.02 -5.67,-0.77 -5.75,2.73zm61.87 0.45l-62 -0.05 -0.01 20.53c-0.02,2.74 0.46,3.56 3.26,3.58l55.19 -0c4.57,0.03 3.55,-1.99 3.55,-10.2 -0,-4.61 0.02,-9.23 0,-13.85z"/>
 </g>
</svg>
