<?xml version="1.0" encoding="UTF-8"?>
<!DOCTYPE svg PUBLIC "-//W3C//DTD SVG 1.1//EN" "http://www.w3.org/Graphics/SVG/1.1/DTD/svg11.dtd">
<!-- Creator: CorelDRAW 2020 (64-Bit Evaluation Version) -->
<svg xmlns="http://www.w3.org/2000/svg" xml:space="preserve" width="3.14345in" height="1.34715in" version="1.1" style="shape-rendering:geometricPrecision; text-rendering:geometricPrecision; image-rendering:optimizeQuality; fill-rule:evenodd; clip-rule:evenodd"
viewBox="0 0 3162.7 1355.4"
 xmlns:xlink="http://www.w3.org/1999/xlink"
 xmlns:xodm="http://www.corel.com/coreldraw/odm/2003">
 <defs>
  <style type="text/css">
   <![CDATA[
    .fil1 {fill:#0467AA}
    .fil2 {fill:#165A99;fill-rule:nonzero}
    .fil0 {fill:#0467AA;fill-rule:nonzero}
   ]]>
  </style>
 </defs>
 <g id="Layer_x0020_1">
  <metadata id="CorelCorpID_0Corel-Layer"/>
  <g id="_1908910363072">
   <g>
    <path class="fil0" d="M-0 1003.34l0 -16.55c27.38,-1.51 49.42,-5.52 66.38,-12.03 16.72,-6.77 31.49,-16.8 44.33,-30.59 15.02,-15.8 25.2,-35.6 30.53,-59.67 5.09,-24.07 7.75,-61.17 7.75,-111.81l0 -542.04c0,-50.64 -2.67,-87.75 -7.75,-111.82 -5.33,-24.07 -15.51,-43.87 -30.53,-59.67 -12.84,-14.29 -27.62,-24.57 -44.82,-30.84 -16.96,-6.27 -39.01,-10.28 -65.9,-11.78l0 -16.55 389.22 0c117.27,39.43 306.23,143.35 332.6,279.95 10.15,-169.9 -273.95,-279.95 -273.95,-279.95 47.24,0 95.8,0.32 110.56,1.51 53.8,4.33 98.36,17.55 133.73,39.86 30.77,19.56 54.51,45.38 71.23,77.22 16.72,31.84 25.19,67.69 25.19,107.56 0,64.43 -20.19,173.45 -58.36,214.92 -98.33,-188.45 -188.53,-139.44 -312.93,-261.5 -114.46,133.34 -49.01,340.16 92.45,397.82 -197.27,96.66 -115.03,386.3 114.19,423.27 -27.82,0.06 -112.94,2.69 -149.41,2.69l-474.53 0z"/>
    <path class="fil1" d="M417.3 179.56c0,0 66.04,102.7 136.51,149.05 12.41,8.17 9.1,12.97 2.65,18.82 -9.2,8.33 -16.13,17.99 -23.38,40.5 -10.05,31.19 22,28.9 29.62,18.39 15.08,-20.81 31.24,-56.42 53.42,-42.41 17.26,10.9 0.85,18.71 -4.95,54.8 -7.21,44.8 25.47,30.91 32.18,12.97 15.19,-40.61 18.79,-41.62 50.41,-18.7 53.29,38.62 107.25,86.2 137.38,145.8 54.81,108.38 87.17,261.86 -33,375.71 -120.18,113.85 -318,77.07 -366.66,-78.38 -48.66,-155.45 77.23,-274.56 190.63,-249.16 113.41,25.4 160.64,190.66 65.59,245.66 -95.05,55 -175.24,-40.1 -153.14,-117.34 8.64,-30.21 39.37,-22.13 31.76,9.4 -7.62,31.53 53.96,107.33 98.43,67.95 52.89,-46.82 -5.4,-140.78 -65.7,-140.01 -60.31,0.77 -107.06,37.03 -107.06,124.61 0,87.58 125.02,140.27 197.38,101.3 72.36,-38.97 126.27,-132.34 52.64,-247.07 -100.71,-119.11 -213.64,-77.55 -306.73,-193.16 -93.09,-115.6 -37.66,-248.72 -17.98,-278.72z"/>
    <path class="fil0" d="M952.32 1010.46l0 -412.6c54.87,0 113.35,-93.33 175.44,-102.34l0 514.94 -175.44 0zm449.3 -676.57l0 676.57 -175.45 0 0 -676.57 175.45 0zm490.37 174.72l-163.13 501.85 -122.22 0 -168.39 -501.85 187.11 0 103 336.09 105.96 -336.09 57.67 0zm527.34 484c-42.88,17.34 -84.77,26.01 -125.51,26.01 -60.29,0 -97.42,-19.55 -111.55,-58.48 -29.24,40.29 -71.13,60.52 -126,60.52 -102.35,0 -153.6,-49.13 -153.6,-147.39 0,-74.64 46.82,-127.17 140.29,-157.26 85.92,-27.88 128.79,-61.54 128.79,-100.64 0,-51.51 -24.64,-77.18 -74.09,-77.18 -57,0 -85.59,24.99 -85.59,74.8 0,15.64 4.6,36.21 13.8,61.88l-87.07 -17.34c-2.46,-15.64 -3.62,-30.26 -3.62,-43.86 0,-79.56 70.31,-119.34 210.77,-119.34 133.56,0 200.25,37.06 200.25,111.35l0 304.65c0,31.45 9.86,47.09 29.4,47.09 6.08,0 15.12,-3.57 26.95,-10.71l16.76 45.91zm-248.56 -283.91c-11.01,12.93 -23.66,23.8 -38.11,32.47 -36.31,21.93 -54.54,58.65 -54.54,110.5 0,66.47 12.48,99.63 37.62,99.63 36.63,0 55.03,-32.81 55.03,-98.6l0 -143.99zm991.92 301.76l-175.45 0 0 -376.9c0,-32.98 -9.36,-49.47 -28.26,-49.47 -43.54,0 -65.39,47.43 -65.39,142.12l0 284.25 -175.45 0 0 -368.91c0,-37.57 -8.37,-56.44 -25.13,-56.44 -43.7,0 -65.55,47.26 -65.55,141.61l0 283.73 -175.45 0 0 -503.38c59.31,0 117.79,-4.08 175.45,-12.41l0 86.53c41.4,-57.29 92.33,-85.85 153.11,-85.85 50.6,0 88.38,27.03 113.02,80.92 39.27,-54.57 88.38,-81.94 147.36,-81.94 81.16,0 121.73,42.33 121.73,126.82l0 389.31z"/>
    <path class="fil1" d="M857.53 221.68c0,0 51.45,48.04 54.67,127.83 3.22,79.78 45.61,80.88 101.8,95.3 0,0 -28.53,-101.4 -86.9,-164.54 0,0 87.51,59.74 109.42,214.46 0,0 -27.93,-6.25 -37.99,-17.29 -10.06,-11.04 -58.33,-60.17 -110.09,-32.24 -51.76,27.93 -76.2,55.77 -76.2,55.77 0,0 36.21,-9.67 61.86,8.41 25.66,18.08 81.92,52.33 124.47,-6.64 0,0 -52.09,-29.57 -116.63,-20.12 0,0 44.42,-31.53 158.18,30.3 0,0 16.84,-13.54 29.75,-24.85 0,0 89.24,-13.52 52.06,-131.68 0,0 -6.82,21.6 -28.69,36.56 -21.87,14.96 -49.68,39.95 -33.27,85.04 0,0 45.18,-46.56 50.87,-71.92 0,0 -6.22,47.3 -61.99,90.85 0,0 -12.65,-48.27 -14.71,-65.75 -2.06,-17.48 18.68,-36.2 2.27,-95.19 -16.41,-58.99 -115.39,-110.15 -178.91,-114.29z"/>
   </g>
   <polygon class="fil2" points="1538.69,1133.24 1587.74,1286.59 1588.61,1286.59 1638.27,1133.24 1705.38,1133.24 1705.38,1352.32 1654.39,1352.32 1654.39,1297.99 1659.17,1197.95 1658.29,1197.79 1605.5,1352.32 1571.2,1352.32 1518.97,1199.13 1518.05,1199.28 1522.88,1297.99 1522.88,1352.32 1471.88,1352.32 1471.88,1133.24 "/>
   <path id="1" class="fil2" d="M1977.35 1262.5c0,26.96 -8.52,49.15 -25.62,66.66 -17.1,17.51 -39.44,26.24 -67.01,26.24 -27.78,0 -50.33,-8.73 -67.58,-26.24 -17.25,-17.51 -25.88,-39.69 -25.88,-66.66l0 -39.44c0,-26.86 8.63,-49.04 25.83,-66.61 17.2,-17.51 39.64,-26.29 67.32,-26.29 27.47,0 49.86,8.78 67.07,26.29 17.25,17.56 25.88,39.75 25.88,66.61l0 39.44zm-50.69 -39.69c0,-15.66 -3.7,-28.45 -11.04,-38.46 -7.4,-10.01 -17.77,-15.05 -31.22,-15.05 -13.76,0 -24.24,4.98 -31.53,14.95 -7.29,9.96 -10.89,22.8 -10.89,38.57l0 39.64c0,15.87 3.65,28.76 11.04,38.77 7.34,10.02 17.92,15.05 31.68,15.05 13.3,0 23.67,-5.03 30.96,-15.05 7.34,-10.01 10.99,-22.9 10.99,-38.77l0 -39.64z"/>
   <polygon id="2" class="fil2" points="2212.19,1172.38 2154.41,1172.38 2154.41,1352.32 2103.37,1352.32 2103.37,1172.38 2046.06,1172.38 2046.06,1133.24 2212.19,1133.24 "/>
   <polygon id="3" class="fil2" points="2343.49,1352.32 2292.76,1352.32 2292.76,1133.24 2343.49,1133.24 "/>
   <path id="4" class="fil2" d="M2618.9 1262.5c0,26.96 -8.52,49.15 -25.62,66.66 -17.1,17.51 -39.44,26.24 -67.01,26.24 -27.78,0 -50.33,-8.73 -67.58,-26.24 -17.25,-17.51 -25.88,-39.69 -25.88,-66.66l0 -39.44c0,-26.86 8.63,-49.04 25.83,-66.61 17.2,-17.51 39.64,-26.29 67.32,-26.29 27.47,0 49.86,8.78 67.07,26.29 17.25,17.56 25.88,39.75 25.88,66.61l0 39.44zm-50.69 -39.69c0,-15.66 -3.7,-28.45 -11.04,-38.46 -7.4,-10.01 -17.77,-15.05 -31.22,-15.05 -13.76,0 -24.24,4.98 -31.53,14.95 -7.29,9.96 -10.89,22.8 -10.89,38.57l0 39.64c0,15.87 3.65,28.76 11.04,38.77 7.34,10.02 17.92,15.05 31.68,15.05 13.3,0 23.67,-5.03 30.96,-15.05 7.34,-10.01 10.99,-22.9 10.99,-38.77l0 -39.64z"/>
   <polygon id="5" class="fil2" points="2887.78,1352.32 2837.04,1352.32 2756.88,1212.69 2755.96,1213 2755.96,1352.32 2704.96,1352.32 2704.96,1133.24 2755.96,1133.24 2836.17,1272.87 2837.04,1272.56 2837.04,1133.24 2887.78,1133.24 "/>
   <path id="6" class="fil2" d="M3095.04 1294.08c0,-7.65 -2.57,-13.61 -7.7,-17.82 -5.09,-4.21 -14.28,-8.63 -27.53,-13.35 -27.68,-8.68 -48.17,-18.02 -61.52,-28.04 -13.35,-9.97 -20.03,-24.39 -20.03,-43.24 0,-18.34 7.96,-33.17 23.88,-44.48 15.87,-11.35 36.05,-17 60.55,-17 24.24,0 44.16,6.27 59.62,18.74 15.51,12.48 23.01,28.55 22.5,48.22l-0.26 0.87 -49.35 0c0,-8.68 -2.98,-15.71 -8.88,-21.16 -5.91,-5.44 -14.12,-8.16 -24.55,-8.16 -10.22,0 -18.23,2.26 -24.08,6.73 -5.8,4.52 -8.68,10.07 -8.68,16.69 0,6.37 2.93,11.5 8.78,15.36 5.85,3.85 16.89,8.68 33.02,14.48 24.86,7.44 43.6,16.53 56.18,27.37 12.58,10.83 18.9,25.68 18.9,44.63 0,19.25 -7.5,34.3 -22.49,45.14 -15,10.89 -34.87,16.33 -59.67,16.33 -24.86,0 -46.37,-6.27 -64.55,-18.74 -18.13,-12.48 -26.96,-30.45 -26.45,-53.92l0.31 -0.92 49.51 0c0,12.58 3.39,21.57 10.22,26.96 6.83,5.4 17.15,8.12 30.96,8.12 10.53,0 18.38,-2.11 23.57,-6.32 5.13,-4.16 7.75,-9.65 7.75,-16.49z"/>
  </g>
 </g>
</svg>
